<svg xmlns="http://www.w3.org/2000/svg" viewBox="0 0 256 256">
  <rect width="256" height="256" fill="#E8F4F8"/>
  <path d="M128 220c-2 0-4-0.8-5.5-2.2C120 215 68 165 68 120c0-22 18-40 40-40 12 0 23 5.5 30 14 7-8.5 18-14 30-14 22 0 40 18 40 40 0 45-52 95-54.5 97.8-1.5 1.4-3.5 2.2-5.5 2.2z" fill="#6BC4B8" opacity="0.3"/>
  <path d="M128 210c-1.5 0-3-0.6-4.2-1.8C122 206 75 161 75 120c0-18 14.5-32.5 32.5-32.5 10 0 19 4.5 25.5 11.5 6.5-7 15.5-11.5 25.5-11.5 18 0 32.5 14.5 32.5 32.5 0 41-47 86-48.8 87.8-1.2 1.2-2.7 1.8-4.2 1.8z" fill="none" stroke="#4A9B8E" stroke-width="8" stroke-linecap="round" stroke-linejoin="round"/>
  <circle cx="100" cy="105" r="4" fill="#7DD3C0"/>
  <circle cx="156" cy="105" r="4" fill="#7DD3C0"/>
</svg>